<svg id="Layer_1" data-name="Layer 1" xmlns="http://www.w3.org/2000/svg" viewBox="0 0 335.92 340.98"><defs><style>.cls-1{fill:none;stroke:#324c5e;stroke-linecap:round;stroke-linejoin:round;stroke-width:14px;}</style></defs><title>delivery</title><path class="cls-1" d="M215,154.32l50.48-.69c7.63-.11,20.85,7.73,25.27,13.87l25.88,35.92a66.65,66.65,0,0,1,12.27,38v54.38H285.08m-62,0H134.27m-69.47,0H43.11A14,14,0,0,1,29.24,282V204.77M254.06,271.9c24.41,0,42.24,28.18,22.74,53.78C251.2,345.19,223,327.35,223,302.94a31,31,0,0,1,31-31Zm-156,0c24.41,0,42.24,28.18,22.74,53.78C95.18,345.18,67,327.35,67,302.94a31,31,0,0,1,31-31ZM185.36,85.68h15.79A14,14,0,0,1,215,99.56V232.93H43.11a14,14,0,0,1-13.87-13.87V156.24m299,75H264.28a14,14,0,0,1-13.87-13.87V155M98,296.43c5.14,0,8.89,5.95,4.73,11.33-5.38,4-11.25.29-11.25-4.82A6.51,6.51,0,0,1,98,296.43Zm156,0c5.12,0,8.86,5.91,4.76,11.28-5.35,4.1-11.28.36-11.28-4.78a6.52,6.52,0,0,1,6.52-6.51ZM95.43,7c66.08,0,115.24,72.48,72.28,142.27a56.38,56.38,0,0,1-18.48,18.47C79.44,210.62,7,161.49,7,95.42A88.42,88.42,0,0,1,95.43,7ZM135,57.85,106.58,86.27M95.42,81c-11.35,0-19.65,13.12-10.54,25,11.88,9,25,.76,25-10.58A14.43,14.43,0,0,0,95.42,81ZM43.34,46.83,82.79,86.27M95.43,13V26.37M13,95.42H26.38m69,82.43V164.47m82.43-69H164.48"/></svg>