<svg id="Layer_1" data-name="Layer 1" xmlns="http://www.w3.org/2000/svg" viewBox="0 0 336.4 336.4"><defs><style>.cls-1{fill:none;stroke:#324c5e;stroke-linecap:round;stroke-linejoin:round;stroke-width:14px;}</style></defs><title>refund</title><path class="cls-1" d="M158,219.51l63.34-93.93m-102.18,39L158,219.51M168.2,58.63A109.57,109.57,0,1,0,277.77,168.2,109.57,109.57,0,0,0,168.2,58.63ZM207.06,7.16c-21.52-2.28-21.74,21.29-41.58,22.73C146.25,31.19,145,5.55,121.33,9.3c-19.78,8.79-8.18,29.3-24.65,40.48C80.69,60.52,66.75,39,48.16,54c-12.74,17.5,7.57,29.47-1.11,47.37-8.48,17.3-31.34,5.6-39.9,27.94-2.28,21.52,21.29,21.74,22.73,41.58,1.3,19.23-24.34,20.52-20.58,44.15,8.78,19.78,29.3,8.18,40.47,24.65,10.74,16-10.82,29.94,4.25,48.52,17.5,12.74,29.47-7.56,47.38,1.11,17.3,8.48,5.6,31.34,27.94,39.9,21.52,2.28,21.74-21.29,41.58-22.73,19.23-1.3,20.52,24.34,44.15,20.58,19.78-8.78,8.18-29.3,24.65-40.48,16-10.74,29.94,10.82,48.52-4.25,12.74-17.5-7.56-29.46,1.11-47.37,8.48-17.3,31.34-5.6,39.9-27.94,2.28-21.52-21.29-21.74-22.73-41.58-1.3-19.23,24.34-20.52,20.58-44.15-8.78-19.78-29.3-8.18-40.48-24.65-10.74-16,10.82-29.94-4.25-48.52-17.5-12.74-29.46,7.57-47.38-1.11-17.3-8.48-5.6-31.34-27.94-39.9Z"/></svg>