<svg id="Layer_1" data-name="Layer 1" xmlns="http://www.w3.org/2000/svg" viewBox="0 0 336.05 294.57"><defs><style>.cls-1{fill:none;stroke:#324c5e;stroke-linecap:round;stroke-linejoin:round;stroke-width:14px;}</style></defs><title>shop</title><path class="cls-1" d="M7.48,287.57H328.57m-287.33,0V163.65m79.18,123.92V163.65m174.4,123.92V163.65M43.5,7,7.55,90.74A35.55,35.55,0,0,0,7,96.26c-.37,17.36,12.43,33.21,29.55,36.12a35.87,35.87,0,0,0,37.58-17.83,35.85,35.85,0,0,0,62.59,0,35.85,35.85,0,0,0,62.59,0,35.85,35.85,0,0,0,62.59,0,35.87,35.87,0,0,0,37.63,17.82c17.11-2.93,29.88-18.77,29.5-36.12a35.54,35.54,0,0,0-.55-5.51L292.59,7ZM73.61,111.75,89.53,11.36M136,111.75l5.31-100.38m57.06,100.38Q195.7,61.56,193,11.36m67.67,100.38L244.79,11.36M94.07,227.19V203.8m91.72,40,72.41-73.41m-46.85,93.64,49-49.66"/></svg>