<svg id="Layer_1" data-name="Layer 1" xmlns="http://www.w3.org/2000/svg" viewBox="0 0 336.4 336.4"><defs><style>.cls-1{fill:none;stroke:#324c5e;stroke-linecap:round;stroke-linejoin:round;stroke-width:14px;}</style></defs><title>support</title><path class="cls-1" d="M190.78,306.65c21.3-3.17,42.87-10.61,57.38-25.12,18-18,32.05-48.56,32.05-75.88v-93c0-27.32-14-55-32.05-73S202.44,7.6,175.12,7.6H161.49c-27.32,0-55,14-73,32.05s-32.05,45.71-32.05,73v93m150.73-74.16a7.19,7.19,0,1,1-7.19,7.19,7.19,7.19,0,0,1,7.19-7.19Zm-77.65,0a7.19,7.19,0,1,1-7.2,7.19,7.2,7.2,0,0,1,7.2-7.19ZM53.14,207.11c-25.79-2-46.14-24.94-46.14-53s20.35-51,46.14-53m230,105.94c25.79-2,46.14-24.94,46.14-53s-20.35-51-46.14-53M125.25,199.69c4.41,15.67,21.95,27.38,42.91,27.38s38.5-11.71,42.91-27.38m-42.91,84.67a22.52,22.52,0,1,1-22.52,22.52,22.52,22.52,0,0,1,22.52-22.52ZM54.42,103.88a112.67,112.67,0,0,0,76.36-56.66,112.18,112.18,0,0,0,80.85,34.28A112,112,0,0,0,267,66.94"/></svg>