<svg id="_" data-name="‘‘" xmlns="http://www.w3.org/2000/svg" viewBox="0 0 104.09 78.31"><defs><style>.cls-1{fill:#777;}</style></defs><title>quote</title><path class="cls-1" d="M45.16,0l6.15,17.13C34.12,25.25,31.8,37.31,31.8,37.31c11.26.44,15,15.27,10.95,26.81-2.17,6.13-11.35,14.69-22.62,14.16C4.33,77.54-.88,64.67.12,49.5.93,37.16,9.12,23.8,20,14.08,32.45,2.88,45.16,0,45.16,0Z"/><path class="cls-1" d="M97.95,0l6.15,17.13C86.91,25.25,84.58,37.31,84.58,37.31c11.26.44,15,15.27,10.95,26.81-2.17,6.13-11.35,14.69-22.62,14.16-15.79-.74-21-13.62-20-28.78.81-12.34,9-25.7,19.83-35.42C85.24,2.88,97.95,0,97.95,0Z"/></svg>