<svg xmlns="http://www.w3.org/2000/svg" viewBox="0 0 40 50"><path d="M34-30.4l-2.9-11.3a2.78 2.78 0 00-2.4-2l-.7-.5a6.82 6.82 0 002.2-5 6.9 6.9 0 00-13.8 0 7 7 0 002.2 5.1l-.6.5a2.55 2.55 0 00-2.3 2s-3 11.1-3 11.2v.1a1.58 1.58 0 001 1.9l1.2.4a1.63 1.63 0 001.9-.9l.8-2 .2 12.8h11.3l.2-12.6.7 1.8a1.54 1.54 0 001.5 1 1.09 1.09 0 00.5-.1l1.3-.4a1.85 1.85 0 00.7-2zm-1.2.9l-1.2.4a.61.61 0 01-.7-.3L28.4-36l-.2 16.8h-9.4L18.6-36l-2.7 6.7a.52.52 0 01-.66.31l-1.1-.4a.52.52 0 01-.31-.66l3.1-11.3a1.69 1.69 0 011.5-1.3h.2l1-.9h2.3a5.9 5.9 0 113.2 0h2.3l1.1.9h.2a1.71 1.71 0 011.6 1.2l2.9 11.3a.84.84 0 01-.4.7zM34 29.6l-2.9-11.3a2.78 2.78 0 00-2.4-2l-.7-.5a6.82 6.82 0 002.2-5 6.9 6.9 0 00-13.8 0 7 7 0 002.2 5.1l-.6.5a2.55 2.55 0 00-2.3 2s-3 11.1-3 11.2v.1a1.58 1.58 0 001 1.9l1.2.4a1.63 1.63 0 001.9-.9l.8-2 .2 12.8h11.3l.2-12.6.7 1.8a1.54 1.54 0 001.5 1 1.09 1.09 0 00.5-.1l1.3-.4a1.85 1.85 0 00.7-2zm-1.2.9l-1.2.4a.61.61 0 01-.7-.3L28.4 24l-.2 16.8h-9.4L18.6 24l-2.7 6.7a.52.52 0 01-.66.31l-1.1-.4a.52.52 0 01-.31-.66l3.1-11.3a1.69 1.69 0 011.5-1.3h.2l1-.9h2.3a5.9 5.9 0 113.2 0h2.3l1.1.9h.2a1.71 1.71 0 011.6 1.2l2.9 11.3a.84.84 0 01-.4.7z" fill="#333" fill-opacity=".2"/><path d="M15.4 38.8h-4a1.64 1.64 0 01-1.4-1.1l-3.1-8a.9.9 0 01-.5.1l-1.4.1a1.62 1.62 0 01-1.6-1.4L2.3 15.4l1.6-1.3a6.87 6.87 0 01-3-4.6A7.14 7.14 0 012 4a7.6 7.6 0 014.7-3.1A7.14 7.14 0 0112.2 2a7.28 7.28 0 012.3 9.6l2.1-.1.1 1c0 .2.1.5.1.8a2.41 2.41 0 011 1s1.9 3.2 2.8 4.9c.7 1.2 2.1 4.2 2.8 5.9a2.1 2.1 0 01-.8 2.6l-.6.4a1.63 1.63 0 01-1.5.2l-.6-.3a8.93 8.93 0 00.5 1.3 7.91 7.91 0 001.8 2.6l.6.3v4.6l-4.5-.1a7.32 7.32 0 01-2.5-1.5l-.4 3.6zm-10-19.2l3.5 9.8 2.9 7.5h1.6V35l-1.9-9.4 3.1 5.4a8.24 8.24 0 003.8 3.8h2.1v-1.4a14 14 0 01-2.2-3.1 44.55 44.55 0 01-2.2-8l-1.3-6.3 3.2 5.6c.6 1.1 2.1 3.6 2.8 4.9l.6-.4c-.8-1.6-2.1-4.6-2.8-5.8-.9-1.7-2.8-4.9-2.8-4.9a.54.54 0 00-.4-.3l-.7-.1-.1-.7a4.33 4.33 0 00-.1-.5l-5.3.3 2.2-1.9a4.3 4.3 0 00.9-1 5.17 5.17 0 00.8-4 5.67 5.67 0 00-2.2-3.4 5.09 5.09 0 00-4-.8 5.67 5.67 0 00-3.4 2.2 5.17 5.17 0 00-.8 4 5.67 5.67 0 002.2 3.4 3.13 3.13 0 001 .5l1.6.6-3.2 2.6 1 11.5h.4l-.3-8.2z" fill="#333"/><path d="M3.35 15.9l1.1 12.5a.39.39 0 00.36.42h.14l1.4-.1a.66.66 0 00.5-.4l-.2-3.8-3.3-8.6z" fill="#fdbf2d"/><path d="M5.2 28.8l1.1-.1a.66.66 0 00.5-.4l-.2-3.8-1.2-3.1z" fill="#ce592b" fill-opacity=".25"/><path d="M21.4 35.7l-3.8-1.2-2.7-7.8L12 15.5l3.4-2.9c.2 2.4 2.2 14.1 3.7 17.1 0 0 1.3 2.6 2.3 3.1v2.9m-8.4-8.1l-2-.3 2.5 10.1.9.4v-2.9" fill="#e5892b"/><path d="M17.8 25.4c-.4-1.5-.7-3.1-1.1-4.8-.1-.4-.1-.7-.2-1.1l-1.1-2-1.7-1.6s.9 5 2.4 7.1a19.12 19.12 0 001.7 2.4z" style="isolation:isolate" fill="#cf572e" opacity=".6"/><path d="M14.4 37.8h-3a.43.43 0 01-.4-.4l-3-7.8-1.7-4.8-3-9 8.9-.4s2.9 11.3 4.3 14.4c1.9 4.1 3.1 4.7 5 5.8h-3.2s-4.1-1.2-5.9-7.7a.59.59 0 00-.6-.4.62.62 0 00-.3.7s.5 2.4.9 3.6a34.87 34.87 0 002 6z" fill="#fdbf2d"/><path d="M15.4 12.7l-3.3 2.9-8.9.4 3.3-2.7" fill="#ce592b"/><path d="M9.1 21.1l1.4-6.2-5.9.5" style="isolation:isolate" fill="#cf572e" opacity=".6"/><path d="M12 13.5a4.75 4.75 0 01-2.6 1.1c-1.5.3-2.9.2-2.9 0s1.1-.6 2.7-1" fill="#bb3d19"/><circle cx="7.92" cy="8.19" r="6.3" fill="#fdbf2d"/><path d="M4.7 13.6a6.21 6.21 0 008.4-1.9v-.1a8.89 8.89 0 01-8.4 2z" fill="#ce592b" fill-opacity=".25"/><path d="M21.2 27.2l.6-.4a1.09 1.09 0 00.4-1.3c-.7-1.5-2.1-4.6-2.8-5.8-.9-1.7-2.8-4.9-2.8-4.9a1.6 1.6 0 00-2.17-.65l-.23.15a1.68 1.68 0 00-.4 2.1s2.3 3.9 3.1 5.3c.6 1 2.1 3.7 2.9 5.1a.94.94 0 001.24.49l.16-.09z" fill="#fdbf2d"/><path d="M19.4 19.8c-.9-1.7-2.8-4.9-2.8-4.9a1.6 1.6 0 00-2.17-.65l-.23.15-.3.3c1.1 1.5 2.9 3.8 3.9 5.4 1.1 1.8 2.9 5 3.8 6.7l.1-.1a1.09 1.09 0 00.4-1.3 57.67 57.67 0 00-2.7-5.6z" fill="#ce592b" fill-opacity=".25"/></svg>